<svg aria-hidden="true" xmlns="http://www.w3.org/2000/svg" xmlns:xlink="http://www.w3.org/1999/xlink"><symbol viewBox="0 0 20 15" id="arrow" xmlns="http://www.w3.org/2000/svg">
<path fill-rule="evenodd" clip-rule="evenodd" d="M7.45604 0.815201C7.85258 1.19961 7.86242 1.8327 7.478 2.22924L3.36216 6.47495H19C19.5523 6.47495 20 6.92267 20 7.47495C20 8.02724 19.5523 8.47495 19 8.47495H3.36216L7.478 12.7207C7.86242 13.1172 7.85258 13.7503 7.45604 14.1347C7.0595 14.5191 6.42641 14.5093 6.042 14.1127L0.281997 8.17099C-0.093999 7.78313 -0.093999 7.16677 0.281997 6.77891L6.042 0.837164C6.42641 0.440622 7.0595 0.430789 7.45604 0.815201Z"/>
</symbol><symbol viewBox="0 0 11 8" id="check" xmlns="http://www.w3.org/2000/svg">
<path d="M4.73714 7.38772C4.26267 7.84111 3.4928 7.84111 3.01856 7.38772L0.355852 4.8433C-0.118617 4.39013 -0.118617 3.65446 0.355852 3.20129C0.830092 2.7479 1.59996 2.7479 2.07443 3.20129L3.66088 4.71704C3.78064 4.83127 3.97505 4.83127 4.09505 4.71704L8.39069 0.61223C8.86493 0.158838 9.6348 0.158838 10.1093 0.61223C10.3371 0.829954 10.4651 1.12536 10.4651 1.43324C10.4651 1.74111 10.3371 2.03652 10.1093 2.25424L4.73714 7.38772Z"/>
</symbol><symbol viewBox="0 0 11 12" id="clock" xmlns="http://www.w3.org/2000/svg">
<path d="M5.5 0.00927734C2.46718 0.00927734 0 2.47683 0 5.51012C0 8.5434 2.46718 11.011 5.5 11.011C8.53282 11.011 11 8.5434 11 5.51012C11 2.47683 8.53282 0.00927734 5.5 0.00927734ZM8.11572 8.35539C8.02634 8.44478 7.90902 8.48977 7.79169 8.48977C7.67437 8.48977 7.55696 8.44478 7.46767 8.35539L5.17597 6.06343C5.08978 5.97773 5.04169 5.86122 5.04169 5.73935V2.7597C5.04169 2.50621 5.24697 2.30132 5.5 2.30132C5.75303 2.30132 5.95831 2.50621 5.95831 2.7597V5.54957L8.11572 7.70723C8.2949 7.88652 8.2949 8.17618 8.11572 8.35539Z"/>
</symbol><symbol viewBox="0 0 19 16" id="engine" xmlns="http://www.w3.org/2000/svg">
<path d="M18.2083 4.79999H16.9584C16.6076 4.79999 16.2988 5.03357 16.1991 5.37279L15.4296 7.99993H15.3441L15.0021 6.95038C14.8945 6.62158 14.592 6.39999 14.25 6.39999H12.6666V5.59997C12.6666 5.15837 12.3128 4.79999 11.875 4.79999H10.2916V4H11.0833C11.5211 4 11.875 3.64162 11.875 3.20002V0.799986C11.875 0.358386 11.5211 0 11.0833 0H4.75C4.31222 0 3.95835 0.358386 3.95835 0.799986V3.19998C3.95835 3.64158 4.31222 3.99996 4.75 3.99996H5.54166V4.79995H3.16666C2.72888 4.79999 2.375 5.15837 2.375 5.59997V8.79993H1.58335V7.99993C1.58335 7.5584 1.22947 7.19998 0.791691 7.19998C0.353875 7.19998 0 7.5584 0 7.99993V11.1999C0 11.6415 0.353875 11.9999 0.791655 11.9999C1.22943 11.9999 1.58331 11.6415 1.58331 11.1999V10.3999H2.375V11.9999C2.375 12.1183 2.40113 12.2351 2.45178 12.3424L3.57675 14.7424C3.70737 15.0215 3.98525 15.2 4.29163 15.2H13.8336C14.1131 15.2 14.372 15.0504 14.5145 14.808L15.223 13.6H15.4826L16.2212 15.4936C16.3416 15.7992 16.6337 16 16.9583 16H18.2083C18.6461 16 19 15.6416 19 15.2V5.59997C19 5.15837 18.6461 4.79999 18.2083 4.79999Z"/>
</symbol><symbol viewBox="0 0 15 15" id="gift" xmlns="http://www.w3.org/2000/svg">
<path d="M0.9375 7.7002V13.3252C0.9375 13.8427 1.35844 14.2627 1.875 14.2627H6.5625V7.7002H0.9375Z"/>
<path d="M14.0625 3.95046H11.0963C11.3091 3.80515 11.4919 3.66077 11.6194 3.5314C12.3759 2.77108 12.3759 1.53358 11.6194 0.773272C10.8844 0.0326467 9.60375 0.0345217 8.86969 0.773272C8.46281 1.18108 7.38469 2.8414 7.53375 3.95046H7.46625C7.61438 2.8414 6.53625 1.18108 6.13031 0.773272C5.39531 0.0345217 4.11469 0.0345217 3.38063 0.773272C2.625 1.53358 2.625 2.77108 3.37969 3.5314C3.50813 3.66077 3.69094 3.80515 3.90375 3.95046H0.9375C0.420938 3.95046 0 4.3714 0 4.88796V6.29421C0 6.55296 0.21 6.76296 0.46875 6.76296H6.5625V4.88796H8.4375V6.76296H14.5312C14.79 6.76296 15 6.55296 15 6.29421V4.88796C15 4.3714 14.58 3.95046 14.0625 3.95046ZM6.50719 3.91952C6.50719 3.91952 6.46781 3.95046 6.33375 3.95046C5.68594 3.95046 4.44938 3.27733 4.04531 2.87046C3.6525 2.47483 3.6525 1.82983 4.04531 1.43421C4.23563 1.24296 4.48781 1.13796 4.75594 1.13796C5.02313 1.13796 5.27531 1.24296 5.46562 1.43421C6.0975 2.06983 6.72563 3.69358 6.50719 3.91952ZM8.66531 3.95046C8.53219 3.95046 8.49281 3.92046 8.49281 3.91952C8.27437 3.69358 8.9025 2.06983 9.53438 1.43421C9.91219 1.05265 10.5731 1.05077 10.9547 1.43421C11.3484 1.82983 11.3484 2.47483 10.9547 2.87046C10.5506 3.27733 9.31406 3.95046 8.66531 3.95046Z"/>
<path d="M8.4375 7.7002V14.2627H13.125C13.6425 14.2627 14.0625 13.8427 14.0625 13.3252V7.7002H8.4375Z"/>
</symbol><symbol viewBox="0 0 32 46" id="google" xmlns="http://www.w3.org/2000/svg">
<path d="M8.72656 34.0704C10.0308 35.766 11.2178 37.5521 12.279 39.4157C13.185 41.1685 13.5627 42.3569 14.225 44.4688C14.631 45.6356 14.998 45.9838 15.7871 45.9838C16.647 45.9838 17.0371 45.3913 17.3385 44.4751C17.9645 42.4809 18.4556 40.9587 19.2305 39.5206C20.7509 36.744 22.6401 34.2766 24.4966 31.9052C24.9993 31.2341 28.2485 27.3242 29.7113 24.2391C29.7113 24.2391 31.5092 20.8502 31.5092 16.1172C31.5092 11.69 29.7361 8.61938 29.7361 8.61938L24.6313 10.014L21.5311 18.344L20.7642 19.4926L20.6108 19.7006L20.4069 19.9611L20.0487 20.3772L19.5372 20.899L16.7765 23.1936L9.87465 27.2591L8.72656 34.0704Z"/>
<path d="M1.60547 23.6691C3.28992 27.5944 6.53825 31.0448 8.73602 34.0729L20.4093 19.9663C20.4093 19.9663 18.7647 22.1605 15.7815 22.1605C12.4587 22.1605 9.77417 19.4535 9.77417 16.0401C9.77417 13.6994 11.1545 12.0913 11.1545 12.0913L3.23052 14.2575L1.60547 23.6691Z"/>
<path d="M20.5408 0.716553C24.4177 1.99182 27.7361 4.66897 29.7432 8.61687L20.414 19.9586C20.414 19.9586 21.7944 18.3215 21.7944 15.9953C21.7944 12.5024 18.9113 9.89304 15.7968 9.89304C12.8517 9.89304 11.1602 12.0836 11.1602 12.0836V4.9385L20.5408 0.716553Z"/>
<path d="M3.74219 5.72785C6.05787 2.90147 10.1325 -0.0090332 15.7497 -0.0090332C18.4749 -0.0090332 20.5282 0.720852 20.5282 0.720852L11.1485 12.0897H4.50285L3.74219 5.72785Z"/>
<path d="M1.60438 23.6695C1.60438 23.6695 0.0546875 20.5736 0.0546875 16.0884C0.0546875 11.8493 1.66999 8.1438 3.74275 5.72803L11.1543 12.0908L1.60438 23.6695Z"/>
</symbol><symbol viewBox="0 0 19 18" id="govement" xmlns="http://www.w3.org/2000/svg">
<path d="M19 7.92545V1.94386L17.6483 2.22567C16.0858 2.55142 14.9661 3.92858 14.9661 5.52466V6.98955H12.0228V4.46671H12.8637V3.3319C12.8637 2.5332 12.3458 1.85591 11.6276 1.61641V0H10.5143V1.58487L9.5 2.83241L8.48569 1.58487V0H7.37241V1.61637C6.65423 1.85588 6.13622 2.53316 6.13622 3.33187V4.46667H6.97716V6.98948H4.03386V5.52458C4.03386 3.92851 2.9142 2.55134 1.35171 2.2256L0 1.94386V7.92545C0 10.4274 2.02821 12.4556 4.5302 12.4556H5.49653C4.81323 13.0326 4.37816 13.8947 4.37816 14.8569V15.2767H2.92422L1.27497 12.3905L0.308379 12.9429L3.07388 17.7825L4.04047 17.2302L3.56038 16.39H5.49145V14.8569C5.49145 13.7379 6.40185 12.8275 7.52088 12.8275V12.8181L8.23862 13.2966L7.10767 16.1958C8.48432 17.3758 10.5157 17.3758 11.8924 16.1958L10.7614 13.2966L11.4792 12.8181V12.8275C12.5982 12.8275 13.5086 13.7379 13.5086 14.8569V16.39H17.2559C18.2176 16.39 19 15.6076 19 14.6459C19 13.6842 18.2176 12.9017 17.2559 12.9017C16.2941 12.9017 15.5117 13.6842 15.5117 14.6459C15.5117 14.8683 15.554 15.081 15.6303 15.2767H14.6219V14.8569C14.6219 13.8947 14.1868 13.0326 13.5035 12.4556H14.4698C16.9718 12.4556 19 10.4274 19 7.92545V7.92545Z"/>
</symbol><symbol viewBox="0 0 22 19" id="guarantee" xmlns="http://www.w3.org/2000/svg">
<path d="M0 6.78548V17.6426C0 18.392 0.60758 18.9997 1.35714 18.9997H5.42854V5.42834H1.35714C0.60758 5.42834 0 6.03593 0 6.78548Z"/>
<path d="M19.1254 6.78559H15.1163C14.7658 6.78559 14.5902 6.55167 14.5312 6.45094C14.4722 6.35088 14.3529 6.08383 14.5226 5.77767L15.936 3.23238C16.2462 2.67508 16.278 2.0197 16.0242 1.43457C15.7704 0.848773 15.2694 0.424004 14.6498 0.269604L13.6531 0.0204419C13.4106 -0.0405233 13.1535 0.0370085 12.9845 0.224543L7.5732 6.23624C7.01193 6.86113 6.70312 7.66693 6.70312 8.50586V15.607C6.70312 17.4777 8.22526 18.9998 10.096 18.9998L16.8465 18.9991C18.3707 18.9991 19.7165 17.9727 20.1188 16.5035L21.5673 9.85569C21.6097 9.67081 21.6316 9.48129 21.6316 9.29177C21.6316 7.91011 20.5071 6.78557 19.1254 6.78557L19.1254 6.78559Z"/>
</symbol><symbol viewBox="0 0 26 23" id="like" xmlns="http://www.w3.org/2000/svg">
<path d="M2.7752 11.5622L13 22L23.2248 11.5622C24.3614 10.4019 25 8.82813 25 7.18718C25 3.7701 22.2864 1 18.9391 1C17.3316 1 15.79 1.65186 14.6534 2.81218L13 4.5L11.3466 2.81218C10.21 1.65186 8.66837 1 7.06092 1C3.71356 1 1 3.7701 1 7.18718C1 8.82813 1.63856 10.4019 2.7752 11.5622Z" stroke-width="2" stroke-linecap="round" stroke-linejoin="round"/>
</symbol><symbol viewBox="0 0 11 12" id="location" xmlns="http://www.w3.org/2000/svg">
<g clip-path="url(#jclip0_2157_26128)">
<path d="M5.49941 0.015625C3.30274 0.015625 1.51562 1.80301 1.51562 4C1.51562 6.72652 5.08072 10.7292 5.23251 10.8983C5.37508 11.0571 5.624 11.0568 5.76631 10.8983C5.9181 10.7292 9.48319 6.72652 9.48319 4C9.48315 1.80301 7.69606 0.015625 5.49941 0.015625ZM5.49941 6.00464C4.39421 6.00464 3.49509 5.10536 3.49509 4C3.49509 2.89463 4.39423 1.99537 5.49941 1.99537C6.60459 1.99537 7.50371 2.89465 7.50371 4.00002C7.50371 5.10539 6.60459 6.00464 5.49941 6.00464Z"/>
</g>
<defs>
<clipPath id="jclip0_2157_26128">
<rect width="11" height="11.0017" transform="translate(0 0.015625)"/>
</clipPath>
</defs>
</symbol><symbol viewBox="0 0 21 19" id="percent" xmlns="http://www.w3.org/2000/svg">
<path d="M4.50381 10.3421C3.13579 10.3421 2.04315 9.87719 1.22589 8.94737C0.408629 8.01754 0 6.75439 0 5.15789C0 3.57895 0.408629 2.32456 1.22589 1.39474C2.04315 0.464912 3.13579 0 4.50381 0C5.87183 0 6.96447 0.464912 7.78173 1.39474C8.59898 2.32456 9.00762 3.57895 9.00762 5.15789C9.00762 6.75439 8.59898 8.01754 7.78173 8.94737C6.96447 9.87719 5.87183 10.3421 4.50381 10.3421ZM15.0838 0.157894H17.8287L5.94289 18.8421H3.19797L15.0838 0.157894ZM4.50381 8.07895C5.69416 8.07895 6.28934 7.10526 6.28934 5.15789C6.28934 3.22807 5.69416 2.26316 4.50381 2.26316C3.31345 2.26316 2.71827 3.22807 2.71827 5.15789C2.71827 7.10526 3.31345 8.07895 4.50381 8.07895ZM16.4962 19C15.1104 19 14.0089 18.5351 13.1916 17.6053C12.3744 16.6579 11.9657 15.3947 11.9657 13.8158C11.9657 12.2368 12.3744 10.9825 13.1916 10.0526C14.0267 9.12281 15.1282 8.6579 16.4962 8.6579C17.8642 8.6579 18.9569 9.12281 19.7741 10.0526C20.5914 10.9825 21 12.2368 21 13.8158C21 15.4123 20.5914 16.6754 19.7741 17.6053C18.9569 18.5351 17.8642 19 16.4962 19ZM16.4962 16.7368C17.6865 16.7368 18.2817 15.7632 18.2817 13.8158C18.2817 11.886 17.6865 10.9211 16.4962 10.9211C15.2881 10.9211 14.684 11.886 14.684 13.8158C14.684 15.7632 15.2881 16.7368 16.4962 16.7368Z"/>
</symbol><symbol viewBox="0 0 9 10" id="phone" xmlns="http://www.w3.org/2000/svg">
<path d="M8.79822 8.02141L7.40832 6.63135C7.13147 6.35562 6.67301 6.36399 6.38653 6.65058L5.68628 7.35067C5.64204 7.32629 5.59625 7.30082 5.54811 7.2738C5.10591 7.02878 4.50069 6.69296 3.86383 6.05563C3.22507 5.41695 2.88894 4.8108 2.64317 4.36832C2.61724 4.32144 2.59239 4.27625 2.56785 4.23333L3.03782 3.76406L3.26887 3.53272C3.5558 3.24572 3.56371 2.78739 3.28751 2.51085L1.89761 1.12064C1.62141 0.84449 1.16274 0.852867 0.875815 1.13987L0.484091 1.53385L0.494796 1.54447C0.363446 1.71207 0.253686 1.90538 0.172005 2.11383C0.0967117 2.31225 0.0498342 2.5016 0.0283993 2.69133C-0.155129 4.21282 0.540148 5.60335 2.42704 7.49027C5.0353 10.0983 7.13721 9.90132 7.22789 9.8917C7.42538 9.8681 7.61465 9.82091 7.807 9.74621C8.01364 9.66549 8.20681 9.55588 8.37431 9.42481L8.38287 9.43242L8.77971 9.04382C9.06604 8.75687 9.07429 8.29838 8.79822 8.02141Z"/>
</symbol><symbol viewBox="0 0 17 19" id="refill" xmlns="http://www.w3.org/2000/svg">
<path d="M16.248 4.465L16.2634 4.44917L12.4255 0.527794L11.3334 1.64667L13.5073 3.87388C12.5389 4.25388 11.8485 5.20917 11.8485 6.33333C11.8485 7.79 13.0024 8.97223 14.4243 8.97223C14.79 8.97223 15.1403 8.89304 15.4546 8.75054V16.3611C15.4546 16.9417 14.9909 17.4167 14.4243 17.4167C13.8576 17.4167 13.394 16.9417 13.394 16.3612V11.6112C13.394 10.4447 12.4719 9.5 11.3334 9.5H10.3031V2.11112C10.303 0.944706 9.38091 0 8.24247 0H2.06063C0.922108 0 0 0.944706 0 2.11112V19H10.303V11.0833H11.8485V16.3612C11.8485 17.8178 13.0024 19 14.4243 19C15.846 19 17 17.8178 17 16.3612V6.33333C17.0001 5.605 16.7116 4.94529 16.248 4.465ZM8.24247 7.38888H2.06063V2.11112H8.24247V7.38888ZM14.4243 7.38888C13.8576 7.38888 13.394 6.91388 13.394 6.33333C13.394 5.75279 13.8576 5.27779 14.4243 5.27779C14.9909 5.27779 15.4546 5.75279 15.4546 6.33333C15.4546 6.91388 14.9909 7.38888 14.4243 7.38888Z"/>
</symbol><symbol viewBox="0 0 17 18" id="sale" xmlns="http://www.w3.org/2000/svg">
<path d="M15.0161 2.38867H10.0336C9.55498 2.38867 9.10512 2.57504 8.76674 2.91345L1.72009 9.96014C1.38168 10.2985 1.19531 10.7484 1.19531 11.227C1.19531 11.7055 1.38168 12.1554 1.72009 12.4938L6.70258 17.4761C7.05182 17.8254 7.51061 18 7.96936 18C8.42812 18 8.88691 17.8253 9.23615 17.4761L16.2829 10.4293C16.6213 10.0909 16.8076 9.64106 16.8076 9.16251V4.18017C16.8076 3.19234 16.004 2.38867 15.0161 2.38867ZM12.6274 8.36046C11.6395 8.36046 10.8359 7.55678 10.8359 6.56893C10.8359 5.58107 11.6395 4.7774 12.6274 4.7774C13.6152 4.7774 14.4189 5.58107 14.4189 6.56893C14.4189 7.55678 13.6152 8.36046 12.6274 8.36046Z"/>
<path d="M13.8208 0H8.83825C8.35967 0 7.90981 0.186363 7.57143 0.524778L0.524778 7.57147C0.186363 7.90984 0 8.35974 0 8.83829C0 9.21259 0.114469 9.56911 0.32611 9.86872C0.466699 9.59415 0.650215 9.33997 0.874653 9.1156L7.92127 2.06891C8.48521 1.50497 9.23502 1.19436 10.0326 1.19436H15.0151C15.1888 1.19436 15.3589 1.21011 15.5246 1.23877C15.2911 0.520664 14.6158 0 13.8208 0Z"/>
</symbol><symbol viewBox="0 0 23 23" id="search" xmlns="http://www.w3.org/2000/svg">
<path d="M22 22L15.3397 15.3397M9.4 17.8C4.76081 17.8 1 14.0392 1 9.4C1 4.76081 4.76081 1 9.4 1C14.0392 1 17.8 4.76081 17.8 9.4C17.8 14.0392 14.0392 17.8 9.4 17.8Z" stroke-width="2" stroke-linecap="round" stroke-linejoin="round"/>
</symbol><symbol viewBox="0 0 20 34" id="slider-arrow" xmlns="http://www.w3.org/2000/svg">
<path d="M1.00741 15.3168L15.6269 0.697834C16.5569 -0.23259 18.0647 -0.23259 18.9942 0.697834C19.9238 1.62743 19.9238 3.13515 18.9942 4.06467L6.05821 17.0003L18.9938 29.9354C19.9234 30.8654 19.9234 32.3729 18.9938 33.3025C18.0642 34.2325 16.5565 34.2325 15.6265 33.3025L1.00703 18.6833C0.542232 18.2183 0.310094 17.6094 0.310094 17.0003C0.310094 16.3909 0.542684 15.7816 1.00741 15.3168Z"/>
</symbol><symbol viewBox="0 0 20 15" id="speedometr" xmlns="http://www.w3.org/2000/svg">
<path d="M10.5292 7.22209C10.3541 7.19564 10.1783 7.1775 10.0029 7.1775C8.85126 7.1775 7.70039 7.67134 7.08291 8.68418C6.16249 10.1945 6.73916 12.1978 8.33329 13.0694C8.85831 13.3567 9.43457 13.421 9.99996 13.421C11.1516 13.421 12.2995 12.855 12.9167 11.8421C13.6133 10.699 13.4379 9.38721 12.6354 8.40355L13.75 4.3421L10.5292 7.22209ZM11.4429 11.1245C11.1462 11.6116 10.595 11.8421 9.99996 11.8421C9.70626 11.8421 9.42414 11.8429 9.16706 11.702C8.37122 11.267 8.09788 10.2995 8.55704 9.54593C8.85378 9.05884 9.40794 8.75605 10.0033 8.75605C10.2966 8.75605 10.5758 8.8275 10.8329 8.96802C11.6287 9.40343 11.902 10.3705 11.4429 11.1245ZM9.99996 0C4.47708 0 0 4.51302 0 9.86843C0 11.8263 0.600416 13.4759 1.62958 15H5.83333V13.421H2.49999C1.89708 12.2846 1.66667 11.1596 1.66667 9.86843C1.66667 5.41263 5.405 1.57895 9.99996 1.57895C14.595 1.57895 18.3333 5.41263 18.3333 9.86843C18.3333 11.1596 18.1029 12.2846 17.5 13.421H14.1666V15H18.3333C19.3625 13.4759 20 11.8263 20 9.86843C20 4.51302 15.5229 0 9.99996 0Z"/>
</symbol><symbol viewBox="0 0 19 23" id="statistic" xmlns="http://www.w3.org/2000/svg">
<path d="M11.7667 19C11.7667 20.6569 13.1098 22 14.7667 22H15C16.6569 22 18 20.6569 18 19V11.6364C18 9.97951 16.6569 8.63636 15 8.63636H14.7667C13.1098 8.63636 11.7667 9.97951 11.7667 11.6364V19Z" stroke-width="2" stroke-linecap="round" stroke-linejoin="round"/>
<path d="M1 19C1 20.6569 2.34314 22 4 22H4.23333C5.89019 22 7.23333 20.6569 7.23333 19V4C7.23333 2.34315 5.89019 1 4.23333 1H4C2.34315 1 1 2.34315 1 4V19Z" stroke-width="2" stroke-linecap="round" stroke-linejoin="round"/>
</symbol><symbol viewBox="0 0 17 19" id="timer" xmlns="http://www.w3.org/2000/svg">
<path d="M14.0209 4.50567L14.6048 3.92176L15.2722 4.58912L16.4401 3.42125L13.9375 0.918701L12.7696 2.08657L13.437 2.75389L12.6862 3.50465C8.68216 1.08551 3.51022 2.33678 1.17453 6.34086C-1.16117 10.3449 0.0900633 15.35 4.01073 17.7692C7.9314 20.1883 13.1033 18.937 15.439 14.933C17.5245 11.5128 16.9406 7.17507 14.0209 4.50567ZM8.34846 16.4345C5.09516 16.4345 2.5092 13.8485 2.5092 10.5952C2.5092 7.34192 5.09516 4.75593 8.34846 4.75593V10.5952H14.1877C14.1878 13.8485 11.6018 16.4345 8.34846 16.4345Z"/>
</symbol><symbol viewBox="0 0 18 12" id="toyota" xmlns="http://www.w3.org/2000/svg">
<path d="M8.64389 0.085083C13.4949 0.085083 17.2344 2.43753 17.2344 5.6436C17.2344 8.84967 13.4949 11.2021 8.64389 11.2021C3.79292 11.2021 0.0535164 8.84967 0.0535164 5.6436C0.0535164 2.43753 3.79303 0.085083 8.64389 0.085083ZM3.39427 2.70294C3.39427 3.43885 4.62879 4.00661 6.60685 4.23431C6.79149 2.47415 7.32581 1.3161 8.01153 0.883921C5.90134 1.00889 3.39427 1.72087 3.39427 2.70265V2.70294ZM8.64389 8.644C9.33159 8.644 9.89363 7.62163 9.93749 5.65183C9.52488 5.68386 9.09368 5.70021 8.64389 5.70087C8.19411 5.70153 7.76295 5.68519 7.3504 5.65183C7.39416 7.62163 7.95641 8.6437 8.64389 8.6437V8.644ZM8.64389 4.343C9.06672 4.343 9.46983 4.33089 9.8532 4.30667C9.66565 3.12827 9.19499 2.1591 8.64389 2.1591C8.0928 2.1591 7.62277 3.12827 7.43469 4.30667C7.81772 4.3301 8.22079 4.34211 8.64389 4.34271V4.343ZM9.27491 0.882928C9.96146 1.31451 10.4962 2.47266 10.6804 4.23412C12.6591 4.00632 13.8936 3.43855 13.8936 2.70265C13.8936 1.718 11.3863 1.00482 9.27491 0.882631V0.882928ZM15.7756 5.42523C15.7775 4.64769 15.5142 3.89061 15.0254 3.26793C14.8334 4.32285 13.218 5.23326 10.7505 5.56558C10.7505 5.59178 10.7513 5.61739 10.7513 5.64389C10.7513 8.2159 10.123 9.87352 9.25949 10.3965C12.9102 10.1765 15.7756 8.02274 15.7756 5.42523ZM8.02861 10.3965C7.16514 9.87352 6.53683 8.2159 6.53683 5.64389C6.53683 5.61739 6.53746 5.59178 6.53756 5.56558C4.07008 5.23276 2.45473 4.32285 2.26269 3.26793C1.77388 3.89061 1.5106 4.64769 1.51248 5.42523C1.51227 8.02274 4.37809 10.1765 8.02861 10.396V10.3965Z"/>
</symbol><symbol viewBox="0 0 18 22" id="trade-in" xmlns="http://www.w3.org/2000/svg">
<path d="M0.0561054 11.7703C-0.0782496 10.6059 0.0337128 9.48179 0.338251 8.44278C1.35039 4.98985 4.52565 2.45054 8.29207 2.40576V0.148596C8.29207 0.0231979 8.44881 -0.0439796 8.55182 0.0321549L13.196 3.44477C13.2722 3.50299 13.2722 3.61943 13.196 3.67318L8.5563 7.08579C8.44881 7.16193 8.29654 7.09475 8.29654 6.96935V4.71667C5.81993 4.75697 3.70608 6.28414 2.79695 8.44278C2.4521 9.25786 2.27744 10.158 2.3267 11.103C2.39388 12.4018 2.88204 13.5975 3.65234 14.5649C4.06436 15.0799 3.96583 15.8323 3.43289 16.2219C2.92682 16.5936 2.21922 16.4906 1.82959 15.998C0.875671 14.8067 0.239724 13.3557 0.0561054 11.7703ZM13.4647 7.43512C14.2395 8.39799 14.7277 9.59823 14.7904 10.897C14.8396 11.8464 14.6605 12.7466 14.3201 13.5572C13.411 15.7159 11.2971 17.2475 8.82053 17.2833V15.0307C8.82053 14.9053 8.66378 14.8381 8.56078 14.9142L3.91657 18.3268C3.84044 18.385 3.84044 18.5015 3.91657 18.5552L8.5563 21.9678C8.66378 22.044 8.81605 21.9768 8.81605 21.8514V19.5942C12.5825 19.5539 15.7622 17.0146 16.7699 13.5572C17.0744 12.5182 17.1819 11.3941 17.052 10.2297C16.8729 8.64431 16.2369 7.19328 15.283 6.002C14.8889 5.50936 14.1858 5.40635 13.6797 5.77807C13.1512 6.1677 13.0527 6.92009 13.4647 7.43512Z"/>
</symbol><symbol viewBox="0 0 19 18" id="trash" xmlns="http://www.w3.org/2000/svg">
<path d="M5.02912 10.1853L6.44422 11.0207L4.60251 7.36572L0.479415 7.48854L1.81086 8.27827L0 11.63C0 11.63 1.45427 14.2656 2.44573 15.8392C2.85098 16.4823 3.39329 16.8466 3.91364 16.8466H9.20857V13.0291L3.45737 13.0273L5.02912 10.1853Z"/>
<path d="M9.90555 5.87103L13.9183 6.11133L15.8425 2.46409L14.4992 3.23365L12.4741 0.00649564C12.4741 0.00649564 9.46411 -0.0279178 7.60756 0.0616759C6.84809 0.0984627 6.26306 0.390384 6.00734 0.841913L3.39844 5.45035L6.72053 7.33123L9.55548 2.32644L11.2542 5.09435L9.90555 5.87103Z"/>
<path d="M18.5307 10.5276L16.012 5.86987L12.6543 7.68667L15.3878 12.746L12.1405 12.7146L12.1892 11.2437L9.86328 14.4317L11.9322 18L11.9934 16.4538L15.8038 16.452C15.8038 16.452 17.4307 13.9185 18.3415 12.2987C18.7159 11.6359 18.7782 10.9862 18.5307 10.5276Z"/>
</symbol><symbol viewBox="0 0 17 15" id="wallet" xmlns="http://www.w3.org/2000/svg">
<path d="M13.8125 12.0417C12.0551 12.0417 10.625 10.6116 10.625 8.85418C10.625 7.0968 12.0551 5.66668 13.8125 5.66668H15.5834V4.25001C15.5834 3.46871 14.948 2.83334 14.1667 2.83334H13.4584V1.41667C13.4584 0.635376 12.823 0 12.0417 0H2.125C1.07454 0 0.206125 0.767835 0.0361251 1.77013C0.0205417 1.82821 0 1.88488 0 1.94792V12.75C0 13.9216 0.953418 14.875 2.125 14.875H14.1667C14.948 14.875 15.5834 14.2396 15.5834 13.4584V12.0417H13.8125ZM1.41667 2.125C1.41667 1.73471 1.734 1.41667 2.125 1.41667H12.0417V2.83334H2.125C1.734 2.83334 1.41667 2.5153 1.41667 2.125Z"/>
<path d="M16.4688 6.72913H13.8125C12.6409 6.72913 11.6875 7.68254 11.6875 8.85413C11.6875 10.0257 12.6409 10.9791 13.8125 10.9791H16.4688C16.762 10.9791 17 10.7411 17 10.4479V7.26038C17 6.96713 16.762 6.72913 16.4688 6.72913ZM13.8125 9.56246C13.4215 9.56246 13.1042 9.24513 13.1042 8.85413C13.1042 8.46313 13.4215 8.14579 13.8125 8.14579C14.2035 8.14579 14.5208 8.46313 14.5208 8.85413C14.5208 9.24513 14.2035 9.56246 13.8125 9.56246Z"/>
</symbol><symbol viewBox="0 0 20 20" id="whatsapp" xmlns="http://www.w3.org/2000/svg">
<path d="M18.5043 4.62488C15.5125 -0.000152887 9.40435 -1.37516 4.6674 1.49986C0.0551144 4.37488 -1.44076 10.6249 1.55099 15.25L1.80031 15.625L0.803054 19.375L4.54275 18.375L4.91672 18.625C6.53725 19.5 8.28244 20 10.0276 20C11.8975 20 13.7673 19.5 15.3879 18.5C20.0002 15.5 21.3714 9.37492 18.5043 4.62488ZM15.8865 14.25C15.3879 15 14.7646 15.5 13.892 15.625C13.3934 15.625 12.7701 15.875 10.2769 14.875C8.15779 13.875 6.4126 12.2499 5.16603 10.3749C4.41809 9.49992 4.04412 8.37491 3.91947 7.2499C3.91947 6.2499 4.29344 5.37489 4.91672 4.74988C5.16603 4.49988 5.41534 4.37488 5.66466 4.37488H6.28794C6.53725 4.37488 6.78656 4.37488 6.91122 4.87488C7.16053 5.49989 7.78382 6.9999 7.78382 7.1249C7.90847 7.2499 7.90847 7.49991 7.78382 7.62491C7.90847 7.87491 7.78382 8.12491 7.65916 8.24991C7.5345 8.37491 7.40985 8.62491 7.28519 8.74991C7.03588 8.87492 6.91122 9.12492 7.03588 9.37492C7.5345 10.1249 8.15779 10.8749 8.78107 11.4999C9.52901 12.1249 10.2769 12.6249 11.1495 12.9999C11.3989 13.1249 11.6482 13.1249 11.7728 12.8749C11.8975 12.6249 12.5208 11.9999 12.7701 11.7499C13.0194 11.4999 13.144 11.4999 13.3934 11.6249L15.3879 12.6249C15.6372 12.7499 15.8865 12.8749 16.0111 12.9999C16.1358 13.3749 16.1358 13.875 15.8865 14.25Z"/>
</symbol></svg>